<?xml version="1.0" standalone="no"?>
<!DOCTYPE svg PUBLIC "-//W3C//DTD SVG 20010904//EN"
 "http://www.w3.org/TR/2001/REC-SVG-20010904/DTD/svg10.dtd">
<svg version="1.0" xmlns="http://www.w3.org/2000/svg"
 width="512.000000pt" height="512.000000pt" viewBox="0 0 512.000000 512.000000"
 preserveAspectRatio="xMidYMid meet">
<metadata>
Created by potrace 1.11, written by Peter Selinger 2001-2013
</metadata>
<g transform="translate(0.000000,512.000000) scale(0.100000,-0.100000)"
fill="#000000" stroke="none">
<path d="M2317 4953 c-16 -15 -5 -79 27 -161 45 -116 68 -207 91 -367 4 -22 8
-49 10 -60 1 -11 6 -56 10 -100 4 -44 9 -91 11 -105 3 -14 7 -234 10 -490 l5
-465 -47 90 c-77 150 -141 252 -246 390 -88 115 -313 335 -441 431 -239 180
-547 327 -802 385 -27 6 -54 12 -60 13 -5 2 -32 7 -60 11 -27 5 -52 10 -55 10
-3 1 -32 5 -65 9 -33 4 -71 10 -85 12 -14 2 -91 7 -172 10 -139 6 -146 5 -143
-12 3 -11 14 -66 25 -124 22 -110 23 -113 66 -250 190 -605 617 -1109 1169
-1380 186 -91 357 -149 550 -186 22 -5 43 -9 48 -10 4 -1 13 -2 21 -3 16 -1
153 -194 189 -267 30 -60 73 -190 83 -254 4 -25 9 -56 12 -70 7 -40 14 -1010
7 -1010 -3 0 -16 5 -27 11 -54 29 -164 2 -195 -49 -10 -17 -16 -18 -57 -9 -32
7 -56 7 -80 0 -33 -10 -36 -9 -64 26 -61 76 -180 116 -278 92 -98 -24 -193
-125 -209 -223 l-7 -37 -36 22 c-55 34 -106 46 -180 43 -103 -4 -188 -53 -251
-144 -13 -18 -29 -31 -36 -28 -7 2 -30 0 -51 -7 -43 -13 -94 -75 -94 -116 -1
-18 -10 -32 -32 -46 -54 -35 -73 -70 -73 -135 1 -98 57 -154 155 -155 65 0 99
18 136 73 21 30 22 31 41 13 75 -70 186 -103 280 -83 31 6 73 20 94 30 27 14
42 16 55 9 10 -6 39 -11 66 -13 34 -1 59 -10 83 -28 18 -14 45 -30 58 -35 37
-14 132 -7 161 13 21 13 31 14 47 5 29 -15 103 -13 138 4 27 13 31 13 49 -5
10 -11 38 -22 60 -25 35 -5 48 -1 77 22 20 15 41 39 46 53 16 43 30 43 75 2
57 -52 118 -67 182 -45 7 2 30 -5 53 -16 57 -30 104 -21 147 27 17 21 32 47
32 58 0 19 1 19 17 -4 28 -42 77 -84 129 -109 40 -21 64 -25 134 -25 100 -1
157 22 222 87 21 22 40 38 42 36 1 -2 13 -19 25 -36 52 -76 173 -111 270 -78
57 19 127 80 137 120 5 19 10 22 27 16 12 -4 40 -6 62 -5 31 3 45 -2 65 -21
67 -64 173 -57 233 14 64 77 37 199 -54 247 -16 8 -31 14 -34 14 -34 -1 -45 2
-45 15 0 16 -74 95 -89 95 -5 0 -27 18 -48 40 -45 47 -94 61 -140 38 -27 -14
-29 -13 -31 6 0 11 -18 54 -39 94 -51 100 -111 146 -195 151 -55 3 -108 -19
-155 -63 l-33 -30 0 28 c0 65 -62 145 -138 177 -78 34 -180 11 -246 -56 -26
-27 -36 -31 -68 -27 -58 7 -88 -5 -132 -53 -30 -32 -51 -45 -79 -49 l-38 -6 4
997 c4 1090 1 1035 64 1232 23 74 121 282 143 305 5 5 21 0 37 -11 44 -32 158
-81 225 -99 78 -20 226 -17 361 7 361 65 671 270 867 574 198 307 312 418 500
490 l35 14 -31 0 c-63 2 -390 -60 -609 -115 -173 -44 -217 -42 -435 21 -115
33 -215 54 -238 50 -16 -2 -91 -35 -168 -71 -76 -37 -179 -82 -229 -101 -49
-19 -102 -42 -118 -49 -53 -28 -81 -96 -123 -298 -6 -31 -45 -147 -58 -170
-36 -68 -55 -84 -99 -84 -52 1 -103 -26 -116 -62 -7 -18 -10 11 -11 105 -3
202 -11 332 -25 445 -3 19 -7 55 -10 80 -11 95 -61 338 -85 415 -63 197 -115
312 -158 346 -27 20 -35 23 -45 12z m365 -1570 c9 -11 14 -11 26 -1 12 11 12
7 -2 -22 -31 -63 -45 -95 -55 -125 -7 -23 -10 2 -10 100 0 124 1 128 15 96 8
-19 20 -41 26 -48z m-203 -1025 l0 -63 -15 39 c-8 21 -19 45 -26 53 -9 11 -9
16 3 24 32 20 39 10 38 -53z"/>
</g>
</svg>
